<mxfile host="app.diagrams.net" modified="2022-03-18T10:12:02.703Z" agent="5.0 (Windows NT 10.0; Win64; x64) AppleWebKit/537.36 (KHTML, like Gecko) Chrome/99.0.4844.51 Safari/537.36 Edg/99.0.1150.39" etag="yhL-8Uku_UzQQ2ygqG9B" version="17.1.3" type="github">
  <diagram id="C5RBs43oDa-KdzZeNtuy" name="Page-1">
    <mxGraphModel dx="1070" dy="681" grid="1" gridSize="10" guides="1" tooltips="1" connect="1" arrows="1" fold="1" page="1" pageScale="1" pageWidth="827" pageHeight="1169" math="0" shadow="0">
      <root>
        <mxCell id="WIyWlLk6GJQsqaUBKTNV-0" />
        <mxCell id="WIyWlLk6GJQsqaUBKTNV-1" parent="WIyWlLk6GJQsqaUBKTNV-0" />
        <mxCell id="SNB4UDbjZehtk4ZGgVXv-1" value="开始" style="ellipse;whiteSpace=wrap;html=1;" vertex="1" parent="WIyWlLk6GJQsqaUBKTNV-1">
          <mxGeometry x="90" y="130" width="78" height="43" as="geometry" />
        </mxCell>
        <mxCell id="SNB4UDbjZehtk4ZGgVXv-8" style="edgeStyle=orthogonalEdgeStyle;rounded=0;orthogonalLoop=1;jettySize=auto;html=1;entryX=0;entryY=0.5;entryDx=0;entryDy=0;" edge="1" parent="WIyWlLk6GJQsqaUBKTNV-1" source="SNB4UDbjZehtk4ZGgVXv-2" target="SNB4UDbjZehtk4ZGgVXv-4">
          <mxGeometry relative="1" as="geometry" />
        </mxCell>
        <mxCell id="SNB4UDbjZehtk4ZGgVXv-9" style="edgeStyle=orthogonalEdgeStyle;rounded=0;orthogonalLoop=1;jettySize=auto;html=1;entryX=0;entryY=0.5;entryDx=0;entryDy=0;" edge="1" parent="WIyWlLk6GJQsqaUBKTNV-1" source="SNB4UDbjZehtk4ZGgVXv-2" target="SNB4UDbjZehtk4ZGgVXv-5">
          <mxGeometry relative="1" as="geometry" />
        </mxCell>
        <mxCell id="SNB4UDbjZehtk4ZGgVXv-10" style="edgeStyle=orthogonalEdgeStyle;rounded=0;orthogonalLoop=1;jettySize=auto;html=1;" edge="1" parent="WIyWlLk6GJQsqaUBKTNV-1" source="SNB4UDbjZehtk4ZGgVXv-2" target="SNB4UDbjZehtk4ZGgVXv-6">
          <mxGeometry relative="1" as="geometry" />
        </mxCell>
        <mxCell id="SNB4UDbjZehtk4ZGgVXv-11" style="edgeStyle=orthogonalEdgeStyle;rounded=0;orthogonalLoop=1;jettySize=auto;html=1;entryX=0;entryY=0.5;entryDx=0;entryDy=0;" edge="1" parent="WIyWlLk6GJQsqaUBKTNV-1" source="SNB4UDbjZehtk4ZGgVXv-2" target="SNB4UDbjZehtk4ZGgVXv-7">
          <mxGeometry relative="1" as="geometry" />
        </mxCell>
        <mxCell id="SNB4UDbjZehtk4ZGgVXv-2" value="安全日志输入" style="rounded=1;whiteSpace=wrap;html=1;fontSize=12;glass=0;strokeWidth=1;shadow=0;" vertex="1" parent="WIyWlLk6GJQsqaUBKTNV-1">
          <mxGeometry x="203" y="131.5" width="87" height="40" as="geometry" />
        </mxCell>
        <mxCell id="SNB4UDbjZehtk4ZGgVXv-13" style="edgeStyle=orthogonalEdgeStyle;rounded=0;orthogonalLoop=1;jettySize=auto;html=1;entryX=0;entryY=0.5;entryDx=0;entryDy=0;" edge="1" parent="WIyWlLk6GJQsqaUBKTNV-1" source="SNB4UDbjZehtk4ZGgVXv-4" target="SNB4UDbjZehtk4ZGgVXv-12">
          <mxGeometry relative="1" as="geometry" />
        </mxCell>
        <mxCell id="SNB4UDbjZehtk4ZGgVXv-4" value="攻击者提取" style="rounded=1;whiteSpace=wrap;html=1;fontSize=12;glass=0;strokeWidth=1;shadow=0;" vertex="1" parent="WIyWlLk6GJQsqaUBKTNV-1">
          <mxGeometry x="390" y="11.5" width="87" height="40" as="geometry" />
        </mxCell>
        <mxCell id="SNB4UDbjZehtk4ZGgVXv-14" style="edgeStyle=orthogonalEdgeStyle;rounded=0;orthogonalLoop=1;jettySize=auto;html=1;" edge="1" parent="WIyWlLk6GJQsqaUBKTNV-1" source="SNB4UDbjZehtk4ZGgVXv-5" target="SNB4UDbjZehtk4ZGgVXv-12">
          <mxGeometry relative="1" as="geometry" />
        </mxCell>
        <mxCell id="SNB4UDbjZehtk4ZGgVXv-5" value="资产提取" style="rounded=1;whiteSpace=wrap;html=1;fontSize=12;glass=0;strokeWidth=1;shadow=0;" vertex="1" parent="WIyWlLk6GJQsqaUBKTNV-1">
          <mxGeometry x="390" y="91.5" width="87" height="40" as="geometry" />
        </mxCell>
        <mxCell id="SNB4UDbjZehtk4ZGgVXv-15" style="edgeStyle=orthogonalEdgeStyle;rounded=0;orthogonalLoop=1;jettySize=auto;html=1;" edge="1" parent="WIyWlLk6GJQsqaUBKTNV-1" source="SNB4UDbjZehtk4ZGgVXv-6" target="SNB4UDbjZehtk4ZGgVXv-12">
          <mxGeometry relative="1" as="geometry" />
        </mxCell>
        <mxCell id="SNB4UDbjZehtk4ZGgVXv-6" value="域名提取" style="rounded=1;whiteSpace=wrap;html=1;fontSize=12;glass=0;strokeWidth=1;shadow=0;" vertex="1" parent="WIyWlLk6GJQsqaUBKTNV-1">
          <mxGeometry x="390" y="171.5" width="87" height="40" as="geometry" />
        </mxCell>
        <mxCell id="SNB4UDbjZehtk4ZGgVXv-16" style="edgeStyle=orthogonalEdgeStyle;rounded=0;orthogonalLoop=1;jettySize=auto;html=1;entryX=0;entryY=0.5;entryDx=0;entryDy=0;" edge="1" parent="WIyWlLk6GJQsqaUBKTNV-1" source="SNB4UDbjZehtk4ZGgVXv-7" target="SNB4UDbjZehtk4ZGgVXv-12">
          <mxGeometry relative="1" as="geometry" />
        </mxCell>
        <mxCell id="SNB4UDbjZehtk4ZGgVXv-7" value="攻击样本提取" style="rounded=1;whiteSpace=wrap;html=1;fontSize=12;glass=0;strokeWidth=1;shadow=0;" vertex="1" parent="WIyWlLk6GJQsqaUBKTNV-1">
          <mxGeometry x="390" y="251.5" width="87" height="40" as="geometry" />
        </mxCell>
        <mxCell id="SNB4UDbjZehtk4ZGgVXv-18" value="" style="edgeStyle=orthogonalEdgeStyle;rounded=0;orthogonalLoop=1;jettySize=auto;html=1;" edge="1" parent="WIyWlLk6GJQsqaUBKTNV-1" source="SNB4UDbjZehtk4ZGgVXv-12" target="SNB4UDbjZehtk4ZGgVXv-17">
          <mxGeometry relative="1" as="geometry" />
        </mxCell>
        <mxCell id="SNB4UDbjZehtk4ZGgVXv-21" value="" style="edgeStyle=orthogonalEdgeStyle;rounded=0;orthogonalLoop=1;jettySize=auto;html=1;" edge="1" parent="WIyWlLk6GJQsqaUBKTNV-1" source="SNB4UDbjZehtk4ZGgVXv-12" target="SNB4UDbjZehtk4ZGgVXv-20">
          <mxGeometry relative="1" as="geometry" />
        </mxCell>
        <mxCell id="SNB4UDbjZehtk4ZGgVXv-12" value="提取成功？" style="rhombus;whiteSpace=wrap;html=1;" vertex="1" parent="WIyWlLk6GJQsqaUBKTNV-1">
          <mxGeometry x="560" y="111.5" width="80" height="80" as="geometry" />
        </mxCell>
        <mxCell id="SNB4UDbjZehtk4ZGgVXv-17" value="跳过" style="rounded=1;whiteSpace=wrap;html=1;fontSize=12;glass=0;strokeWidth=1;shadow=0;" vertex="1" parent="WIyWlLk6GJQsqaUBKTNV-1">
          <mxGeometry x="556.5" y="220" width="87" height="40" as="geometry" />
        </mxCell>
        <mxCell id="SNB4UDbjZehtk4ZGgVXv-19" value="No" style="text;html=1;align=center;verticalAlign=middle;resizable=0;points=[];autosize=1;strokeColor=none;fillColor=none;" vertex="1" parent="WIyWlLk6GJQsqaUBKTNV-1">
          <mxGeometry x="605" y="190" width="30" height="20" as="geometry" />
        </mxCell>
        <mxCell id="SNB4UDbjZehtk4ZGgVXv-24" value="" style="edgeStyle=orthogonalEdgeStyle;rounded=0;orthogonalLoop=1;jettySize=auto;html=1;" edge="1" parent="WIyWlLk6GJQsqaUBKTNV-1" source="SNB4UDbjZehtk4ZGgVXv-20" target="SNB4UDbjZehtk4ZGgVXv-22">
          <mxGeometry relative="1" as="geometry" />
        </mxCell>
        <mxCell id="SNB4UDbjZehtk4ZGgVXv-20" value="提取实体间关系" style="rounded=1;whiteSpace=wrap;html=1;fontSize=12;glass=0;strokeWidth=1;shadow=0;" vertex="1" parent="WIyWlLk6GJQsqaUBKTNV-1">
          <mxGeometry x="690" y="131.5" width="87" height="40" as="geometry" />
        </mxCell>
        <mxCell id="SNB4UDbjZehtk4ZGgVXv-25" value="" style="edgeStyle=orthogonalEdgeStyle;rounded=0;orthogonalLoop=1;jettySize=auto;html=1;" edge="1" parent="WIyWlLk6GJQsqaUBKTNV-1" source="SNB4UDbjZehtk4ZGgVXv-22" target="SNB4UDbjZehtk4ZGgVXv-23">
          <mxGeometry relative="1" as="geometry" />
        </mxCell>
        <mxCell id="SNB4UDbjZehtk4ZGgVXv-22" value="生成画像" style="rounded=1;whiteSpace=wrap;html=1;fontSize=12;glass=0;strokeWidth=1;shadow=0;" vertex="1" parent="WIyWlLk6GJQsqaUBKTNV-1">
          <mxGeometry x="810" y="131.5" width="87" height="40" as="geometry" />
        </mxCell>
        <mxCell id="SNB4UDbjZehtk4ZGgVXv-23" value="结束" style="ellipse;whiteSpace=wrap;html=1;" vertex="1" parent="WIyWlLk6GJQsqaUBKTNV-1">
          <mxGeometry x="930" y="130" width="78" height="43" as="geometry" />
        </mxCell>
        <mxCell id="SNB4UDbjZehtk4ZGgVXv-27" style="edgeStyle=orthogonalEdgeStyle;rounded=0;orthogonalLoop=1;jettySize=auto;html=1;exitX=1;exitY=0.5;exitDx=0;exitDy=0;entryX=0;entryY=0.5;entryDx=0;entryDy=0;" edge="1" parent="WIyWlLk6GJQsqaUBKTNV-1" source="SNB4UDbjZehtk4ZGgVXv-1" target="SNB4UDbjZehtk4ZGgVXv-2">
          <mxGeometry relative="1" as="geometry">
            <mxPoint x="300" y="161.4814814814814" as="sourcePoint" />
            <mxPoint x="400" y="201.4814814814814" as="targetPoint" />
          </mxGeometry>
        </mxCell>
        <mxCell id="SNB4UDbjZehtk4ZGgVXv-28" value="Yes" style="text;html=1;align=center;verticalAlign=middle;resizable=0;points=[];autosize=1;strokeColor=none;fillColor=none;" vertex="1" parent="WIyWlLk6GJQsqaUBKTNV-1">
          <mxGeometry x="635" y="120" width="30" height="20" as="geometry" />
        </mxCell>
      </root>
    </mxGraphModel>
  </diagram>
</mxfile>
